<svg width="13" height="15" viewBox="0 0 13 15" fill="none" xmlns="http://www.w3.org/2000/svg">
<path d="M11.5074 2.61628C10.4086 0.941861 8.59464 0 6.55394 0C4.53069 0 2.71673 0.941861 1.58301 2.61628C0.449292 4.25581 0.187664 6.34884 0.885339 8.18023C1.0772 8.6686 1.37371 9.17442 1.75743 9.62791L6.17022 14.8256C6.27487 14.9302 6.37953 15 6.5365 15C6.69348 15 6.79813 14.9302 6.90278 14.8256L11.333 9.62791C11.7167 9.17442 12.0307 8.68605 12.2051 8.18023C12.9028 6.34884 12.6412 4.25581 11.5074 2.61628ZM6.55394 8.7907C5.05394 8.7907 3.81557 7.55233 3.81557 6.05233C3.81557 4.55233 5.05394 3.31395 6.55394 3.31395C8.05394 3.31395 9.29232 4.55233 9.29232 6.05233C9.29232 7.55233 8.07139 8.7907 6.55394 8.7907Z" fill="#FFD54F"/>
</svg>
